<?xml version="1.0" encoding="UTF-8"?>
<svg id="Layer_2" data-name="Layer 2" xmlns="http://www.w3.org/2000/svg" xmlns:xlink="http://www.w3.org/1999/xlink" viewBox="0 0 132.27 129.96">
  <defs>
    <style>
      .cls-1 {
        fill: #fdb300;
      }

      .cls-2 {
        fill: url(#linear-gradient);
      }
    </style>
    <linearGradient id="linear-gradient" x1="147.99" y1="31.17" x2="-13.16" y2="97.73" gradientUnits="userSpaceOnUse">
      <stop offset="0" stop-color="#ffdad4"/>
      <stop offset="0" stop-color="#d6b8b3"/>
      <stop offset="0" stop-color="#ad9591"/>
      <stop offset="0" stop-color="#887572"/>
      <stop offset="0" stop-color="#675a57"/>
      <stop offset="0" stop-color="#4c4341"/>
      <stop offset="0" stop-color="#36302f"/>
      <stop offset="0" stop-color="#252221"/>
      <stop offset="0" stop-color="#191818"/>
      <stop offset="0" stop-color="#121212"/>
      <stop offset="0" stop-color="#111"/>
    </linearGradient>
  </defs>
  <g id="Layer_1-2" data-name="Layer 1">
    <g>
      <rect class="cls-2" x="0" y="0" width="132.27" height="129.96" rx="64.98" ry="64.98"/>
      <path class="cls-1" d="m57.18,32.43c-.09-.82-.32-1.69-.24-2.52.25-2.57,1.98-3.97,4.17-2.75.91.51,1.61,1.4,2.4,2.12.14.13.23.33.36.52.32-.77.58-1.54.94-2.27.58-1.19,1.41-2.15,2.89-2.01,1.46.13,2.32,1.07,2.79,2.4.19.53.36,1.07.59,1.76.39-.45.64-.84.98-1.11.72-.58,1.43-1.25,2.26-1.62,1.67-.74,3.35.36,3.48,2.2.07.93.01,1.87.01,2.92.72-.25,1.32-.6,1.95-.65.84-.07,1.77-.1,2.55.17,1.14.39,1.67,1.94,1.24,3.35-.27.89-.72,1.73-1.09,2.6,1.04.09,2.13.06,3.14.31.69.17,1.49.6,1.88,1.16.85,1.24.54,2.44-.62,3.7-.46.5-.88,1.05-1.3,1.55.38.18.94.41,1.45.72.46.29.97.6,1.28,1.02,1.09,1.49.58,3.17-1.2,4.09-.58.3-1.2.53-1.75.76.67.74,1.46,1.44,2.05,2.28,1.18,1.7.11,3.51-1.7,3.95-1.24.3-2.55.28-3.75.39.21.66.49,1.46.71,2.29.58,2.15-1.23,4.1-3.34,3.37-.5-.17-1.04-.26-1.56-.38-.1.87-.14,1.71-.3,2.53-.29,1.48-2.37,2.65-3.73,1.75-.93-.62-1.84-1.28-2.79-1.94-.32.54-.61,1.39-1.19,1.94-1.16,1.09-.85,2.39-.85,3.78.67-.24,1.27-.52,1.9-.68,1.15-.3,2.28-.49,3.5-.15.97.27,2.05.13,3.04.34,3.74.81,7.18,2.4,10.54,4.18,1.05.56,2.06,1.2,3.09,1.78,1.13.63,1.31,1.75.08,2.41-2.93,1.57-5.88,3.14-8.95,4.4-2.33.95-4.84,1.51-7.32,2.07-1.54.35-3.11.03-4.57-.61-.29-.13-.57-.27-1-.47,0,.47,0,.8,0,1.14,0,7.09.01,14.17-.03,21.26,0,.54-.27,1.19-.63,1.59-.25.27-.95.37-1.32.22-.37-.15-.64-.68-.84-1.09-.13-.27-.05-.63-.05-.96,0-3.57,0-7.15,0-10.72,0-.32,0-.64,0-.88-1.24.16-2.41.4-3.6.43-2.48.08-4.78-.75-7-1.75-2.1-.94-4.13-2.02-6.18-3.04-.03-.01-.04-.04-.07-.05-1.54-.94-1.55-2.14.03-3.03,1.52-.85,3.06-1.71,4.65-2.41,1.69-.75,3.41-1.47,5.19-1.94,2.25-.6,4.57-.72,6.91.15.03-.34.06-.58.06-.83,0-4.48.02-8.96-.02-13.44,0-.41-.27-.84-.48-1.22-.54-.98-1.12-1.94-1.82-3.16-.12.23-.2.5-.38.67-.64.58-1.27,1.2-1.99,1.68-2.59,1.73-4.31-.45-4.39-2.65-.02-.46,0-.93,0-1.54-1.71.64-3.39,1.44-4.8-.3-1.38-1.7-.21-3.25.39-4.73-1.05,0-2.06.03-3.07,0-1.25-.05-2.86-.71-3.3-2.35-.21-.78,0-1.39.42-1.92.66-.83,1.44-1.57,2.17-2.35-1.42-.68-3.2-1.25-3.19-3.27,0-2.11,1.87-2.62,3.42-3.33-.48-.4-.97-.76-1.42-1.18-.99-.92-1.74-2.06-1.27-3.41.51-1.44,1.88-1.91,3.31-2,.71-.05,1.44.06,2.28.1-.07-.26-.11-.5-.2-.72-.29-.69-.62-1.36-.89-2.06-.48-1.24-.07-2.28.82-3.15.82-.8,1.83-.62,2.78-.34.85.25,1.67.63,2.48.95Zm30.14,45.07c-1.42-.71-2.64-1.39-3.92-1.95-3.47-1.53-6.95-3-10.88-2.79-1.64.09-2.99.99-3.29,2.58-.2,1.05-.19,2.14-.2,3.21-.03,1.98,1.44,3.96,3.9,3.88,1.32-.05,2.66-.22,3.94-.53,3.65-.89,7.01-2.5,10.45-4.39Zm-34.77,11.13c.39.24.6.4.83.5,1.87.83,3.72,1.69,5.61,2.45,1.49.6,3.06.81,4.67.69,1-.08,1.87-.51,2.06-1.53.2-1.05.26-2.16.19-3.24-.11-1.76-1.32-2.25-2.87-2.27-2.34-.02-4.49.7-6.59,1.59-1.27.54-2.51,1.16-3.9,1.81Zm28.04-54.33c-2.41.67-5.69,4.05-5.78,5.92,2.35-.45,5.82-3.95,5.78-5.92Zm-26.75,0c1.12,2.98,4.37,6.04,6.13,5.82-1.24-2.83-3.21-4.82-6.13-5.82Zm-4.5,20.21c2.57.53,7.47-1.31,8.28-3-3.15-.16-5.87.73-8.28,3Zm35.6-.18c-2.42-2.01-5.07-2.96-8.22-2.81,1.57,2.03,6.64,3.78,8.22,2.81Zm-.16-13.54c-1.42-.9-6.71.64-8.22,2.77,3.16.16,5.78-.82,8.22-2.77Zm-35.34-.13c2.37,2.16,5.09,2.93,8.18,2.94-.86-1.83-6.05-3.69-8.18-2.94Zm10.54-10.83c-.47,2.38,1.84,7.3,3.55,7.54.24-2.24-1.57-6.09-3.55-7.54Zm11.07,26.82c-.33,2.18,1.88,6.79,3.56,7.43.58-2.36-2.16-7.36-3.56-7.43Zm-3.51,8.65c1.28-1.78,1.21-7.15-.02-8.47-1.24,1-1.34,7.02.02,8.47Zm-12.82-5.23c1.87.07,5.55-3.45,5.95-5.7-1.75-.02-5.14,3.23-5.95,5.7Zm12.94-31.59c-1.53,1.43-1.36,7.68,0,8.69.95-2.91,1.02-5.74,0-8.69Zm7.26,1.45c-1.86.94-3.81,5.29-3.31,7.39,2.1-1.48,3.74-5.14,3.31-7.39Zm-14.82,34.27c1.85-.77,4.19-6.01,3.33-7.43-1.83,1.22-3.48,4.88-3.33,7.43Zm25.63-16.67c-2.01-1.14-6.89-1.11-8.5.05,1.91,1.32,6.94,1.29,8.5-.05Zm-36.87-.09c1.9,1.46,7.19,1.43,8.75,0-2.91-.97-5.74-1.03-8.75,0Zm30.9,12.9c-.68-2.72-4.22-6.19-6.02-5.92,1.32,2.64,3.17,4.68,6.02,5.92Zm-11.07-11.83c.19.51.26.89.47,1.18.08.11.63.08.7-.04.17-.31.19-.7.28-1.11-.33-.01-.5-.02-.67-.03-.17,0-.34,0-.78,0Zm.24-4c-.12,1.04-.05,1.1,1.12.93v-.93h-1.12Zm-6.96,4.08h-1.2q.46,1.13,1.2,1.06v-1.06Zm3.07-7.02c1.02.13,1.11.01.89-1.11-.72.04-1.16.28-.89,1.11Zm-.03,8.09c.96.11.96.1.77-1.11h-.77v1.11Zm-3.05-5.16c-1.08-.02-1.13.04-.89,1.03.29-.01.59-.03.89-.04v-.99Zm3.08,7.91c-.26.95.39.86.94.97v-.97h-.94Zm5.23-10.96c-.26-.36-.37-.65-.57-.76-.22-.12-.54-.06-.88-.08.04.36.06.61.08.84h1.37Zm-1.39,11.81c1.09-.12,1.12-.15,1.13-.84h-1.13v.84Zm-3.05-7.78v-.95h-.87c.02.35.03.63.04.95h.83Z"/>
    </g>
  </g>
</svg>