<?xml version="1.0" encoding="UTF-8"?>
<svg id="Layer_2" data-name="Layer 2" xmlns="http://www.w3.org/2000/svg" xmlns:xlink="http://www.w3.org/1999/xlink" viewBox="0 0 251.51 129.96">
  <defs>
    <style>
      .cls-1 {
        letter-spacing: .13em;
      }

      .cls-2, .cls-3 {
        fill: #f5f5f5;
      }

      .cls-4 {
        fill: #fdb300;
      }

      .cls-5 {
        fill: #2f2f2f;
      }

      .cls-6 {
        letter-spacing: .12em;
      }

      .cls-3 {
        font-family: CopperplateGothic-Light, 'Copperplate Gothic Light';
        font-size: 12.16px;
        font-weight: 300;
      }

      .cls-7 {
        fill: url(#linear-gradient);
      }
    </style>
    <linearGradient id="linear-gradient" x1="296.9" y1="-5.71" x2="-40.05" y2="133.46" gradientUnits="userSpaceOnUse">
      <stop offset="0" stop-color="#ffdad4"/>
      <stop offset=".04" stop-color="#d6b8b3"/>
      <stop offset=".08" stop-color="#ad9591"/>
      <stop offset=".13" stop-color="#887572"/>
      <stop offset=".18" stop-color="#675a57"/>
      <stop offset=".24" stop-color="#4c4341"/>
      <stop offset=".31" stop-color="#36302f"/>
      <stop offset=".39" stop-color="#252221"/>
      <stop offset=".49" stop-color="#191818"/>
      <stop offset=".62" stop-color="#121212"/>
      <stop offset="1" stop-color="#111"/>
    </linearGradient>
  </defs>
  <g id="Layer_1-2" data-name="Layer 1">
    <g>
      <path class="cls-2" d="m232.56,71.28h-3.25c0-1.01,0-1.98,0-2.94-.03-3.2-.02-6.4-.11-9.6-.04-1.26-.19-2.55-1.27-3.45-.23-.19-.5-.41-.78-.47-3.37-.74-5.9,0-6.87,3.91-.37,1.48-.23,3.09-.25,4.64-.03,2.61,0,5.21,0,7.89h-3.23v-19.1h3.22v2.2c.68-.62,1.17-1.11,1.7-1.55,2.27-1.88,8.7-1.8,10.04,1.91.36.98.74,2.03.76,3.05.08,4.48.04,8.96.04,13.51Z"/>
      <rect class="cls-7" width="251.51" height="129.96" rx="9.49" ry="9.49"/>
      <path class="cls-4" d="m43.79,23.13c-.11-.98-.39-2.01-.29-3,.29-3.06,2.35-4.72,4.96-3.27,1.09.6,1.92,1.66,2.86,2.53.17.16.27.39.43.62.38-.92.69-1.84,1.12-2.7.69-1.42,1.67-2.56,3.44-2.39,1.74.16,2.76,1.28,3.32,2.85.23.63.43,1.27.7,2.1.46-.53.76-1,1.17-1.32.86-.69,1.7-1.49,2.69-1.93,1.99-.88,3.98.43,4.14,2.62.08,1.11.01,2.23.01,3.47.85-.3,1.57-.71,2.31-.77,1-.09,2.1-.12,3.03.2,1.35.46,1.98,2.31,1.48,3.98-.32,1.06-.85,2.05-1.3,3.09,1.24.1,2.53.07,3.74.37.82.2,1.78.71,2.23,1.38,1.01,1.47.64,2.91-.74,4.4-.55.6-1.05,1.25-1.55,1.85.45.22,1.12.48,1.72.86.55.34,1.15.71,1.52,1.22,1.29,1.78.69,3.77-1.42,4.87-.69.36-1.43.63-2.08.91.8.88,1.74,1.71,2.43,2.71,1.41,2.03.13,4.18-2.02,4.7-1.47.36-3.03.33-4.46.46.25.78.59,1.74.85,2.72.68,2.56-1.47,4.87-3.98,4-.6-.21-1.24-.3-1.85-.45-.12,1.04-.17,2.03-.36,3-.35,1.76-2.82,3.15-4.44,2.08-1.11-.73-2.19-1.52-3.31-2.31-.38.64-.72,1.66-1.42,2.31-1.38,1.3-1.01,2.85-1.01,4.5.79-.29,1.51-.62,2.25-.81,1.36-.36,2.71-.58,4.16-.17,1.15.32,2.44.15,3.62.41,4.45.96,8.54,2.86,12.53,4.97,1.25.66,2.44,1.42,3.68,2.12,1.34.75,1.56,2.08.09,2.87-3.49,1.86-6.99,3.74-10.64,5.23-2.77,1.13-5.76,1.8-8.7,2.46-1.83.41-3.7.04-5.44-.73-.34-.15-.67-.32-1.19-.56,0,.56,0,.96,0,1.35,0,8.43.02,16.86-.03,25.29,0,.65-.32,1.42-.75,1.89-.29.32-1.13.44-1.57.26-.44-.18-.76-.8-.99-1.3-.15-.32-.06-.75-.06-1.14,0-4.25,0-8.5,0-12.75,0-.38,0-.76,0-1.04-1.47.19-2.87.47-4.28.52-2.95.09-5.69-.89-8.32-2.08-2.49-1.12-4.91-2.41-7.36-3.62-.03-.02-.05-.04-.08-.06-1.83-1.12-1.84-2.55.04-3.6,1.81-1.02,3.64-2.03,5.53-2.87,2.01-.89,4.06-1.74,6.17-2.31,2.68-.72,5.44-.86,8.22.18.03-.4.08-.7.08-.99,0-5.33.02-10.66-.02-15.99,0-.49-.32-1-.57-1.46-.64-1.16-1.33-2.3-2.17-3.75-.15.27-.24.6-.45.8-.76.7-1.51,1.43-2.37,2-3.08,2.06-5.13-.54-5.23-3.16-.02-.55,0-1.11,0-1.83-2.03.76-4.03,1.71-5.71-.35-1.64-2.02-.24-3.86.46-5.62-1.25,0-2.45.04-3.65-.01-1.49-.06-3.4-.84-3.92-2.79-.25-.93,0-1.66.5-2.29.79-.99,1.71-1.87,2.58-2.8-1.69-.81-3.8-1.48-3.8-3.89,0-2.51,2.22-3.11,4.07-3.96-.58-.48-1.16-.91-1.68-1.4-1.18-1.1-2.08-2.45-1.51-4.06.61-1.72,2.23-2.27,3.94-2.38.85-.06,1.71.07,2.71.12-.09-.31-.13-.6-.24-.86-.34-.82-.74-1.62-1.06-2.45-.57-1.47-.08-2.71.98-3.75.98-.95,2.18-.74,3.31-.41,1.01.3,1.98.75,2.95,1.13Zm35.85,53.6c-1.69-.84-3.14-1.65-4.66-2.32-4.12-1.82-8.27-3.57-12.94-3.32-1.95.1-3.56,1.18-3.91,3.07-.23,1.24-.22,2.54-.24,3.82-.04,2.35,1.72,4.71,4.64,4.61,1.57-.06,3.16-.26,4.68-.63,4.34-1.06,8.33-2.97,12.43-5.22Zm-41.36,13.24c.46.28.71.47.99.59,2.22.98,4.42,2,6.68,2.91,1.77.71,3.64.96,5.56.82,1.19-.09,2.22-.6,2.45-1.82.24-1.25.31-2.57.22-3.85-.14-2.09-1.57-2.68-3.42-2.7-2.79-.03-5.34.83-7.84,1.89-1.51.64-2.98,1.38-4.64,2.15ZM71.63,25.36c-2.87.8-6.77,4.82-6.88,7.04,2.8-.53,6.92-4.7,6.88-7.04Zm-31.81,0c1.33,3.55,5.19,7.18,7.29,6.93-1.47-3.37-3.81-5.73-7.29-6.93Zm-5.35,24.04c3.06.63,8.88-1.55,9.85-3.57-3.75-.19-6.98.87-9.85,3.57Zm42.34-.22c-2.88-2.39-6.03-3.52-9.78-3.34,1.87,2.41,7.9,4.49,9.78,3.34Zm-.2-16.11c-1.68-1.07-7.98.76-9.77,3.29,3.76.19,6.88-.97,9.77-3.29Zm-42.03-.15c2.82,2.57,6.05,3.48,9.73,3.49-1.02-2.17-7.19-4.39-9.73-3.49Zm12.53-12.88c-.56,2.83,2.19,8.68,4.22,8.97.28-2.67-1.87-7.24-4.22-8.97Zm13.16,31.9c-.39,2.59,2.24,8.07,4.23,8.84.69-2.81-2.57-8.75-4.23-8.84Zm-4.18,10.29c1.52-2.11,1.44-8.5-.02-10.07-1.48,1.19-1.59,8.35.02,10.07Zm-15.25-6.22c2.22.09,6.6-4.11,7.08-6.78-2.08-.03-6.11,3.84-7.08,6.78Zm15.39-37.57c-1.82,1.7-1.62,9.14.01,10.34,1.13-3.47,1.22-6.83-.01-10.34Zm8.64,1.73c-2.21,1.12-4.53,6.29-3.94,8.79,2.5-1.76,4.45-6.11,3.94-8.79Zm-17.63,40.76c2.2-.92,4.98-7.14,3.96-8.84-2.18,1.45-4.14,5.8-3.96,8.84Zm30.48-19.82c-2.39-1.35-8.2-1.32-10.11.06,2.27,1.57,8.25,1.53,10.11-.06Zm-43.85-.11c2.26,1.74,8.55,1.7,10.41,0-3.46-1.15-6.82-1.22-10.41,0Zm36.75,15.34c-.81-3.23-5.02-7.36-7.16-7.04,1.57,3.14,3.78,5.57,7.16,7.04Zm-13.16-14.07c.22.6.31,1.06.56,1.4.1.13.75.09.83-.05.2-.37.23-.83.34-1.32-.4-.02-.6-.03-.8-.03-.2,0-.4,0-.93,0Zm.29-4.76c-.14,1.24-.05,1.31,1.33,1.1v-1.1h-1.33Zm-8.27,4.86h-1.43q.55,1.35,1.43,1.26v-1.26Zm3.66-8.34c1.21.15,1.32.01,1.05-1.32-.86.04-1.38.34-1.05,1.32Zm-.03,9.62c1.14.13,1.15.12.91-1.32h-.91v1.32Zm-3.63-6.14c-1.28-.03-1.35.05-1.06,1.22.35-.02.7-.03,1.06-.05v-1.18Zm3.66,9.41c-.31,1.13.47,1.03,1.12,1.15v-1.15h-1.12Zm6.23-13.04c-.31-.43-.44-.78-.68-.9-.26-.14-.64-.07-1.04-.09.04.43.07.72.1.99h1.63Zm-1.65,14.05c1.29-.15,1.33-.18,1.35-1h-1.35v1Zm-3.63-9.25v-1.12h-1.03c.02.41.03.75.05,1.12h.98Z"/>
      <path class="cls-2" d="m116.29,57.95c.1-3.3,1.52-5.25,4.52-5.99,2.32-.58,4.78-.65,7.04.23,2.66,1.03,3.44,1.93,3.58,5.54.13,3.3.02,6.61.03,9.92,0,.78-.02,1.55,1.11,1.66.18.02.46.81.39,1.18-.09.45-.42.95-.8,1.21-.29.2-.91.2-1.21.02-1.08-.66-2.57-.96-2.62-2.52-1.28.73-2.5,1.69-3.88,2.15-2.06.67-4.24,1.09-6.3-.2-1.66-1.04-2.68-2.39-2.76-4.48-.09-2.11.44-3.92,2.22-5.01,1.17-.72,2.61-1.06,3.97-1.36,1.52-.34,3.1-.47,4.65-.65.91-.1,1.7-.38,1.89-1.37.21-1.11.17-2.25-.75-3.06-1.19-1.05-5.39-1.53-6.65-.14-.53.58-.99,1.29-1.26,2.02-.22.59-.38.95-1.1.89-.65-.06-1.31-.01-2.06-.01Zm12.11,3.87c-1.96.32-3.58.55-5.19.85-.96.18-1.93.39-2.84.72-2.33.85-2.13,3.6-.81,4.86,2.1,2,6.75,1.05,8.15-2.12.54-1.22.45-2.72.69-4.32Z"/>
      <path class="cls-2" d="m192.67,62.76h-14.2c-.45,3.41,1.76,5.86,3.87,6.23,3.18.55,6.44-1.31,6.8-3.68h3.05c-.7,2.61-1.95,4.78-4.49,5.78-1.38.54-2.97.85-4.45.81-1.73-.05-3.51-.43-4.92-1.62-1.22-1.03-2.17-2.26-2.71-3.8-1.33-3.83-1.1-7.54.99-11.01,1.51-2.52,3.8-3.77,6.82-3.81,2.44-.03,4.65.36,6.38,2.2,1.34,1.43,2.01,3.21,2.36,5.09.23,1.2.32,2.43.49,3.82Zm-14.19-2.63h10.53c-.3-3.26-1.27-5.87-6.16-5.56-2.07.13-4.83,3.25-4.37,5.56Z"/>
      <path class="cls-2" d="m213.04,62.76h-14.02c-.37,2.44,1.29,5.63,3.22,6.25,2.89.92,6.25-.75,7.53-3.81.88.07,1.79.14,2.85.23-.47,2.23-1.54,3.84-3.24,5.02-1.78,1.23-3.84,1.74-5.93,1.45-1.96-.28-3.87-.74-5.38-2.43-1.42-1.59-2.18-3.31-2.52-5.32-.52-3.07-.12-6,1.54-8.66,1.58-2.51,3.82-3.88,6.9-3.84,1.99.03,3.85.18,5.5,1.49,1.72,1.36,2.49,3.23,2.98,5.22.34,1.38.38,2.84.57,4.41Zm-3.53-2.6c-.35-4.26-2.07-5.89-6.25-5.56-2.36.19-4.59,3.15-4.23,5.56h10.47Z"/>
      <path class="cls-2" d="m160.64,71.27h-3.06v-26.21h3.03v15c.3-.25.47-.38.62-.53,2.43-2.35,4.84-4.7,7.28-7.03.22-.21.59-.37.89-.38,1.11-.05,2.23-.02,3.31-.02-2.32,2.42-4.63,4.83-6.97,7.28,2.5,3.86,5.05,7.81,7.74,11.95-1.36,0-2.59.02-3.81-.02-.16,0-.35-.28-.47-.46-1.85-2.84-3.7-5.7-5.55-8.54-.11-.17-.29-.28-.38-.36-.86.57-1.69,1.07-2.45,1.66-.18.14-.17.57-.17.86-.01,2.25,0,4.51,0,6.82Z"/>
      <path class="cls-2" d="m140.17,71.29h-3.23v-19.12h2.95v2.4c.96-.81,1.67-1.56,2.51-2.1,2.41-1.55,8.21-1.2,9.47,2.31.44,1.23.73,2.58.76,3.88.09,4.17.03,8.35.03,12.59h-3.26c0-.34,0-.68,0-1.02-.02-3.86.05-7.73-.1-11.59-.09-2.4-.69-3.32-2.31-3.95-2.75-1.05-6.3,1-6.62,3.93-.21,1.95-.16,3.93-.19,5.9-.03,2.22,0,4.45,0,6.76Z"/>
      <path class="cls-2" d="m99.17,71.29h-3.14v-19.13h2.83v2.46c.63-.56,1.08-.94,1.5-1.34,1.11-1.07,2.41-1.63,3.96-1.6,1.3.02,2.56,0,3.83.52,2.12.86,3.18,2.53,3.25,4.58.16,4.79.05,9.58.05,14.46h-3.06c0-.34,0-.7,0-1.07-.03-3.86-.02-7.73-.11-11.59-.05-1.96-.83-3.43-2.28-3.87-3.1-.93-6.18.94-6.69,4.13-.11.7-.14,1.42-.14,2.14-.01,3.41,0,6.82,0,10.31Z"/>
      <path class="cls-5" d="m79.64,76.73c-4.1,2.26-8.1,4.17-12.43,5.22-1.52.37-3.12.58-4.68.63-2.92.1-4.67-2.26-4.64-4.61.02-1.28,0-2.57.24-3.82.36-1.89,1.97-2.96,3.91-3.07,4.67-.25,8.81,1.51,12.94,3.32,1.51.67,2.97,1.47,4.66,2.32Z"/>
      <path class="cls-5" d="m38.28,89.97c1.66-.77,3.13-1.51,4.64-2.15,2.5-1.06,5.05-1.92,7.84-1.89,1.85.02,3.28.6,3.42,2.7.08,1.28.02,2.59-.22,3.85-.23,1.22-1.26,1.73-2.45,1.82-1.91.15-3.79-.1-5.56-.82-2.25-.91-4.46-1.93-6.68-2.91-.28-.12-.52-.31-.99-.59Z"/>
      <path class="cls-5" d="m71.63,25.36c.04,2.34-4.08,6.51-6.88,7.04.11-2.22,4-6.24,6.88-7.04Z"/>
      <path class="cls-5" d="m39.82,25.37c3.47,1.2,5.82,3.56,7.29,6.93-2.09.25-5.96-3.38-7.29-6.93Z"/>
      <path class="cls-5" d="m34.47,49.41c2.86-2.7,6.1-3.76,9.85-3.57-.96,2.02-6.79,4.2-9.85,3.57Z"/>
      <path class="cls-5" d="m76.81,49.19c-1.88,1.15-7.91-.93-9.78-3.34,3.76-.18,6.9.95,9.78,3.34Z"/>
      <path class="cls-5" d="m76.62,33.08c-2.89,2.32-6.01,3.48-9.77,3.29,1.79-2.53,8.09-4.36,9.77-3.29Z"/>
      <path class="cls-5" d="m34.59,32.93c2.54-.9,8.71,1.32,9.73,3.49-3.67-.01-6.9-.93-9.73-3.49Z"/>
      <path class="cls-5" d="m47.12,20.05c2.35,1.73,4.5,6.3,4.22,8.97-2.03-.29-4.78-6.13-4.22-8.97Z"/>
      <path class="cls-5" d="m60.28,51.95c1.67.09,4.93,6.03,4.23,8.84-1.99-.77-4.62-6.25-4.23-8.84Z"/>
      <path class="cls-5" d="m56.11,62.24c-1.62-1.72-1.5-8.88-.02-10.07,1.46,1.57,1.54,7.96.02,10.07Z"/>
      <path class="cls-5" d="m40.86,56.01c.97-2.94,5-6.81,7.08-6.78-.48,2.67-4.86,6.87-7.08,6.78Z"/>
      <path class="cls-5" d="m56.25,18.45c1.23,3.51,1.15,6.87.01,10.34-1.63-1.2-1.83-8.64-.01-10.34Z"/>
      <path class="cls-5" d="m64.89,20.18c.51,2.68-1.44,7.03-3.94,8.79-.59-2.5,1.73-7.67,3.94-8.79Z"/>
      <path class="cls-5" d="m47.26,60.93c-.19-3.04,1.78-7.38,3.96-8.84,1.03,1.69-1.75,7.91-3.96,8.84Z"/>
      <path class="cls-5" d="m77.74,41.11c-1.86,1.59-7.83,1.63-10.11.06,1.91-1.38,7.72-1.41,10.11-.06Z"/>
      <path class="cls-5" d="m33.89,41c3.58-1.22,6.94-1.15,10.41,0-1.86,1.7-8.14,1.73-10.41,0Z"/>
      <path class="cls-5" d="m70.64,56.34c-3.38-1.47-5.59-3.9-7.16-7.04,2.14-.32,6.35,3.81,7.16,7.04Z"/>
      <path class="cls-5" d="m57.48,42.27c.53,0,.73,0,.93,0,.2,0,.4.02.8.03-.11.49-.13.95-.34,1.32-.08.14-.73.18-.83.05-.25-.34-.34-.8-.56-1.4Z"/>
      <path class="cls-5" d="m57.76,37.51h1.33v1.1c-1.38.2-1.47.13-1.33-1.1Z"/>
      <path class="cls-5" d="m49.49,42.37v1.26q-.89.09-1.43-1.26h1.43Z"/>
      <path class="cls-5" d="m53.15,34.03c-.32-.98.19-1.28,1.05-1.32.27,1.33.15,1.47-1.05,1.32Z"/>
      <path class="cls-5" d="m53.11,43.64v-1.32h.91c.24,1.43.23,1.44-.91,1.32Z"/>
      <path class="cls-5" d="m49.49,37.5v1.18c-.36.02-.71.03-1.06.05-.29-1.17-.22-1.25,1.06-1.22Z"/>
      <path class="cls-5" d="m53.14,46.91h1.12v1.15c-.65-.12-1.44-.02-1.12-1.15Z"/>
      <path class="cls-5" d="m59.37,33.87h-1.63c-.03-.27-.06-.56-.1-.99.41.02.78-.05,1.04.09.25.13.37.48.68.9Z"/>
      <path class="cls-5" d="m57.72,47.92v-1h1.35c-.02.83-.06.86-1.35,1Z"/>
      <path class="cls-5" d="m54.09,38.67h-.98c-.02-.38-.03-.71-.05-1.12h1.03v1.12Z"/>
      <text class="cls-3" transform="translate(94.12 85.93)"><tspan class="cls-1" x="0" y="0">B</tspan><tspan class="cls-6" x="10.98" y="0">R</tspan><tspan class="cls-1" x="21.73" y="0">WN ENV</tspan></text>
      <path class="cls-2" d="m232.11,71.61h-3.25c0-1.01,0-1.98,0-2.94-.03-3.2-.02-6.4-.11-9.6-.04-1.26-.19-2.55-1.27-3.45-.23-.19-.5-.41-.78-.47-3.37-.74-5.9,0-6.87,3.91-.37,1.48-.23,3.09-.25,4.64-.03,2.61,0,5.21,0,7.89h-3.23v-19.1h3.22v2.2c.68-.62,1.17-1.11,1.7-1.55,2.27-1.88,8.7-1.8,10.04,1.91.36.98.74,2.03.76,3.05.08,4.48.04,8.96.04,13.51Z"/>
    </g>
  </g>
</svg>